<mxfile host="app.diagrams.net" modified="2021-02-08T00:21:21.540Z" agent="5.0 (Windows NT 10.0; Win64; x64) AppleWebKit/537.36 (KHTML, like Gecko) Chrome/88.0.4324.150 Safari/537.36 Edg/88.0.705.63" etag="eDUiJ9JsKYepWJMS6F6t" version="14.2.9" type="github">
  <diagram id="XTiPLLbaOTo3zk3PVDdU" name="Page-1">
    <mxGraphModel dx="1718" dy="662" grid="0" gridSize="10" guides="1" tooltips="1" connect="1" arrows="1" fold="1" page="0" pageScale="1" pageWidth="827" pageHeight="1169" background="none" math="0" shadow="0">
      <root>
        <mxCell id="0" />
        <mxCell id="1" parent="0" />
        <mxCell id="HrI9ifF9CnB-6xsceKTo-3" style="edgeStyle=orthogonalEdgeStyle;orthogonalLoop=1;jettySize=auto;html=1;entryX=0;entryY=0.5;entryDx=0;entryDy=0;curved=1;" edge="1" parent="1" source="HrI9ifF9CnB-6xsceKTo-1" target="HrI9ifF9CnB-6xsceKTo-2">
          <mxGeometry relative="1" as="geometry" />
        </mxCell>
        <mxCell id="HrI9ifF9CnB-6xsceKTo-1" value="Computador" style="whiteSpace=wrap;html=1;rounded=1;" vertex="1" parent="1">
          <mxGeometry x="110" y="119" width="120" height="60" as="geometry" />
        </mxCell>
        <mxCell id="HrI9ifF9CnB-6xsceKTo-2" value="Measure-app&lt;br&gt;Coleta de dados&lt;br&gt;E analise" style="whiteSpace=wrap;html=1;rounded=1;" vertex="1" parent="1">
          <mxGeometry x="360" y="119" width="120" height="60" as="geometry" />
        </mxCell>
        <mxCell id="HrI9ifF9CnB-6xsceKTo-4" value="Uso de CPU" style="text;html=1;strokeColor=none;fillColor=none;align=center;verticalAlign=middle;whiteSpace=wrap;rounded=1;" vertex="1" parent="1">
          <mxGeometry x="260" y="130" width="80" height="20" as="geometry" />
        </mxCell>
        <mxCell id="HrI9ifF9CnB-6xsceKTo-7" style="edgeStyle=orthogonalEdgeStyle;orthogonalLoop=1;jettySize=auto;html=1;entryX=0;entryY=0.5;entryDx=0;entryDy=0;curved=1;" edge="1" parent="1" source="HrI9ifF9CnB-6xsceKTo-5" target="HrI9ifF9CnB-6xsceKTo-6">
          <mxGeometry relative="1" as="geometry" />
        </mxCell>
        <mxCell id="HrI9ifF9CnB-6xsceKTo-5" value="Computador" style="whiteSpace=wrap;html=1;rounded=1;" vertex="1" parent="1">
          <mxGeometry x="110" y="290" width="120" height="60" as="geometry" />
        </mxCell>
        <mxCell id="HrI9ifF9CnB-6xsceKTo-18" style="edgeStyle=orthogonalEdgeStyle;orthogonalLoop=1;jettySize=auto;html=1;exitX=1;exitY=0.75;exitDx=0;exitDy=0;entryX=0;entryY=0.75;entryDx=0;entryDy=0;curved=1;" edge="1" parent="1" source="HrI9ifF9CnB-6xsceKTo-6" target="HrI9ifF9CnB-6xsceKTo-10">
          <mxGeometry relative="1" as="geometry" />
        </mxCell>
        <mxCell id="HrI9ifF9CnB-6xsceKTo-6" value="Measure-app" style="whiteSpace=wrap;html=1;rounded=1;" vertex="1" parent="1">
          <mxGeometry x="354" y="290" width="120" height="60" as="geometry" />
        </mxCell>
        <mxCell id="HrI9ifF9CnB-6xsceKTo-8" value="Uso de CPU" style="text;html=1;strokeColor=none;fillColor=none;align=center;verticalAlign=middle;whiteSpace=wrap;rounded=1;" vertex="1" parent="1">
          <mxGeometry x="250" y="300" width="80" height="20" as="geometry" />
        </mxCell>
        <mxCell id="HrI9ifF9CnB-6xsceKTo-17" style="edgeStyle=orthogonalEdgeStyle;orthogonalLoop=1;jettySize=auto;html=1;exitX=0.75;exitY=1;exitDx=0;exitDy=0;entryX=0.75;entryY=0;entryDx=0;entryDy=0;curved=1;" edge="1" parent="1" source="HrI9ifF9CnB-6xsceKTo-10" target="HrI9ifF9CnB-6xsceKTo-11">
          <mxGeometry relative="1" as="geometry" />
        </mxCell>
        <mxCell id="HrI9ifF9CnB-6xsceKTo-19" style="edgeStyle=orthogonalEdgeStyle;orthogonalLoop=1;jettySize=auto;html=1;exitX=0;exitY=0.25;exitDx=0;exitDy=0;entryX=1;entryY=0.25;entryDx=0;entryDy=0;curved=1;" edge="1" parent="1" source="HrI9ifF9CnB-6xsceKTo-10" target="HrI9ifF9CnB-6xsceKTo-6">
          <mxGeometry relative="1" as="geometry" />
        </mxCell>
        <mxCell id="HrI9ifF9CnB-6xsceKTo-33" style="edgeStyle=orthogonalEdgeStyle;orthogonalLoop=1;jettySize=auto;html=1;exitX=1;exitY=0.25;exitDx=0;exitDy=0;entryX=-0.038;entryY=0.304;entryDx=0;entryDy=0;entryPerimeter=0;curved=1;" edge="1" parent="1" source="HrI9ifF9CnB-6xsceKTo-10" target="HrI9ifF9CnB-6xsceKTo-28">
          <mxGeometry relative="1" as="geometry" />
        </mxCell>
        <mxCell id="HrI9ifF9CnB-6xsceKTo-10" value="API para analise" style="whiteSpace=wrap;html=1;rounded=1;" vertex="1" parent="1">
          <mxGeometry x="590" y="290" width="120" height="60" as="geometry" />
        </mxCell>
        <mxCell id="HrI9ifF9CnB-6xsceKTo-16" style="edgeStyle=orthogonalEdgeStyle;orthogonalLoop=1;jettySize=auto;html=1;exitX=0.25;exitY=0;exitDx=0;exitDy=0;entryX=0.25;entryY=1;entryDx=0;entryDy=0;curved=1;" edge="1" parent="1" source="HrI9ifF9CnB-6xsceKTo-11" target="HrI9ifF9CnB-6xsceKTo-10">
          <mxGeometry relative="1" as="geometry" />
        </mxCell>
        <mxCell id="HrI9ifF9CnB-6xsceKTo-11" value="IA" style="whiteSpace=wrap;html=1;rounded=1;" vertex="1" parent="1">
          <mxGeometry x="590" y="390" width="120" height="60" as="geometry" />
        </mxCell>
        <mxCell id="HrI9ifF9CnB-6xsceKTo-20" value="Uso de CPU" style="text;html=1;strokeColor=none;fillColor=none;align=center;verticalAlign=middle;whiteSpace=wrap;rounded=1;" vertex="1" parent="1">
          <mxGeometry x="484" y="320" width="80" height="20" as="geometry" />
        </mxCell>
        <mxCell id="HrI9ifF9CnB-6xsceKTo-21" value="CPU analisada" style="text;html=1;strokeColor=none;fillColor=none;align=center;verticalAlign=middle;whiteSpace=wrap;rounded=1;" vertex="1" parent="1">
          <mxGeometry x="480" y="290" width="100" height="20" as="geometry" />
        </mxCell>
        <mxCell id="HrI9ifF9CnB-6xsceKTo-23" value="CPU analisada" style="text;html=1;strokeColor=none;fillColor=none;align=center;verticalAlign=middle;whiteSpace=wrap;rounded=1;" vertex="1" parent="1">
          <mxGeometry x="530" y="360" width="100" height="20" as="geometry" />
        </mxCell>
        <mxCell id="HrI9ifF9CnB-6xsceKTo-25" value="Uso de CPU" style="text;html=1;strokeColor=none;fillColor=none;align=center;verticalAlign=middle;whiteSpace=wrap;rounded=1;" vertex="1" parent="1">
          <mxGeometry x="680" y="360" width="80" height="20" as="geometry" />
        </mxCell>
        <mxCell id="HrI9ifF9CnB-6xsceKTo-27" value="" style="endArrow=none;dashed=1;html=1;curved=1;" edge="1" parent="1">
          <mxGeometry width="50" height="50" relative="1" as="geometry">
            <mxPoint x="520" y="460" as="sourcePoint" />
            <mxPoint x="520" y="210" as="targetPoint" />
          </mxGeometry>
        </mxCell>
        <mxCell id="HrI9ifF9CnB-6xsceKTo-32" style="edgeStyle=orthogonalEdgeStyle;orthogonalLoop=1;jettySize=auto;html=1;entryX=1;entryY=0.5;entryDx=0;entryDy=0;curved=1;" edge="1" parent="1" source="HrI9ifF9CnB-6xsceKTo-28" target="HrI9ifF9CnB-6xsceKTo-10">
          <mxGeometry relative="1" as="geometry" />
        </mxCell>
        <mxCell id="HrI9ifF9CnB-6xsceKTo-28" value="BD" style="shape=cylinder3;whiteSpace=wrap;html=1;boundedLbl=1;backgroundOutline=1;size=15;rounded=1;" vertex="1" parent="1">
          <mxGeometry x="750" y="280" width="60" height="80" as="geometry" />
        </mxCell>
      </root>
    </mxGraphModel>
  </diagram>
</mxfile>
